name rise44.8762peak52.3436fall86.788.mot
datacolumns 19
datarows 30
range 18.43325800000000 18.48159100000000
endheader
time	ground_force1_vx	ground_force1_vy	ground_force1_vz	ground_force1_px	ground_force1_py	ground_force1_pz	ground_force2_vx	ground_force2_vy	ground_force2_vz	ground_force2_px	ground_force2_py	ground_force2_pz	ground_torque1_x	ground_torque1_y	ground_torque1_z	ground_torque2_x	ground_torque2_y	ground_torque2_z	
18.43325800000000	-4.92076400000000	701.76257699999996	45.98679900000000	0.17125600000000	0.00000000000000	0.11554600000000	0.00000000000000	0.00000000000000	0.00000000000000	0.00000000000000	0.00000000000000	0.00000000000000	0.00000000000000	16.99247400000000	0.00000000000000	0.00000000000000	0.00000000000000	0.00000000000000	
18.43494100000000	-5.41757400000000	703.24218699999994	46.03178100000000	0.17025400000000	0.00000000000000	0.11547200000000	0.00000000000000	0.00000000000000	0.00000000000000	0.00000000000000	0.00000000000000	0.00000000000000	0.00000000000000	17.07143900000000	0.00000000000000	0.00000000000000	0.00000000000000	0.00000000000000	
18.43659700000000	-5.91987700000000	704.75469499999997	46.08151600000000	0.16924600000000	0.00000000000000	0.11540000000000	0.00000000000000	0.00000000000000	0.00000000000000	0.00000000000000	0.00000000000000	0.00000000000000	0.00000000000000	17.15296400000000	0.00000000000000	0.00000000000000	0.00000000000000	0.00000000000000	
18.43826100000000	-6.42759000000000	706.29825700000004	46.13570500000000	0.16823100000000	0.00000000000000	0.11532900000000	0.00000000000000	0.00000000000000	0.00000000000000	0.00000000000000	0.00000000000000	0.00000000000000	0.00000000000000	17.23693100000000	0.00000000000000	0.00000000000000	0.00000000000000	0.00000000000000	
18.43994100000000	-6.94060500000000	707.87106900000003	46.19406200000000	0.16721100000000	0.00000000000000	0.11525800000000	0.00000000000000	0.00000000000000	0.00000000000000	0.00000000000000	0.00000000000000	0.00000000000000	0.00000000000000	17.32322400000000	0.00000000000000	0.00000000000000	0.00000000000000	0.00000000000000	
18.44159800000000	-7.45879900000000	709.47136899999998	46.25631000000000	0.16618800000000	0.00000000000000	0.11518900000000	0.00000000000000	0.00000000000000	0.00000000000000	0.00000000000000	0.00000000000000	0.00000000000000	0.00000000000000	17.41172800000000	0.00000000000000	0.00000000000000	0.00000000000000	0.00000000000000	
18.44326100000000	-7.98202400000000	711.09743300000002	46.32218600000000	0.16516200000000	0.00000000000000	0.11512100000000	0.00000000000000	0.00000000000000	0.00000000000000	0.00000000000000	0.00000000000000	0.00000000000000	0.00000000000000	17.50233000000000	0.00000000000000	0.00000000000000	0.00000000000000	0.00000000000000	
18.44492600000000	-8.51011800000000	712.74757999999997	46.39143600000000	0.16413400000000	0.00000000000000	0.11505300000000	0.00000000000000	0.00000000000000	0.00000000000000	0.00000000000000	0.00000000000000	0.00000000000000	0.00000000000000	17.59491700000000	0.00000000000000	0.00000000000000	0.00000000000000	0.00000000000000	
18.44659000000000	-9.04289800000000	714.42016500000000	46.46382100000000	0.16310600000000	0.00000000000000	0.11498600000000	0.00000000000000	0.00000000000000	0.00000000000000	0.00000000000000	0.00000000000000	0.00000000000000	0.00000000000000	17.68937800000000	0.00000000000000	0.00000000000000	0.00000000000000	0.00000000000000	
18.44825800000000	-9.58016400000000	716.11358199999995	46.53911300000000	0.16208000000000	0.00000000000000	0.11491900000000	0.00000000000000	0.00000000000000	0.00000000000000	0.00000000000000	0.00000000000000	0.00000000000000	0.00000000000000	17.78560000000000	0.00000000000000	0.00000000000000	0.00000000000000	0.00000000000000	
18.44992600000000	-10.12170200000000	717.82626200000004	46.61709900000000	0.16105600000000	0.00000000000000	0.11485300000000	0.00000000000000	0.00000000000000	0.00000000000000	0.00000000000000	0.00000000000000	0.00000000000000	0.00000000000000	17.88347500000000	0.00000000000000	0.00000000000000	0.00000000000000	0.00000000000000	
18.45159600000000	-10.66728000000000	719.55667000000005	46.69757700000000	0.16003500000000	0.00000000000000	0.11478800000000	0.00000000000000	0.00000000000000	0.00000000000000	0.00000000000000	0.00000000000000	0.00000000000000	0.00000000000000	17.98289100000000	0.00000000000000	0.00000000000000	0.00000000000000	0.00000000000000	
18.45325900000000	-11.21665600000000	721.30330400000003	46.78036200000000	0.15901900000000	0.00000000000000	0.11472200000000	0.00000000000000	0.00000000000000	0.00000000000000	0.00000000000000	0.00000000000000	0.00000000000000	0.00000000000000	18.08373900000000	0.00000000000000	0.00000000000000	0.00000000000000	0.00000000000000	
18.45492400000000	-11.76957000000000	723.06469400000003	46.86527800000000	0.15800900000000	0.00000000000000	0.11465800000000	0.00000000000000	0.00000000000000	0.00000000000000	0.00000000000000	0.00000000000000	0.00000000000000	0.00000000000000	18.18591000000000	0.00000000000000	0.00000000000000	0.00000000000000	0.00000000000000	
18.45659500000000	-12.32575400000000	724.83939699999996	46.95216800000000	0.15700500000000	0.00000000000000	0.11459300000000	0.00000000000000	0.00000000000000	0.00000000000000	0.00000000000000	0.00000000000000	0.00000000000000	0.00000000000000	18.28929400000000	0.00000000000000	0.00000000000000	0.00000000000000	0.00000000000000	
18.45825800000000	-12.88492600000000	726.62599699999998	47.04088700000000	0.15601000000000	0.00000000000000	0.11452900000000	0.00000000000000	0.00000000000000	0.00000000000000	0.00000000000000	0.00000000000000	0.00000000000000	0.00000000000000	18.39378100000000	0.00000000000000	0.00000000000000	0.00000000000000	0.00000000000000	
18.45993300000000	-13.44679500000000	728.42309899999998	47.13130200000000	0.15502300000000	0.00000000000000	0.11446400000000	0.00000000000000	0.00000000000000	0.00000000000000	0.00000000000000	0.00000000000000	0.00000000000000	0.00000000000000	18.49926300000000	0.00000000000000	0.00000000000000	0.00000000000000	0.00000000000000	
18.46159500000000	-14.01106100000000	730.22933399999999	47.22329700000000	0.15404500000000	0.00000000000000	0.11440000000000	0.00000000000000	0.00000000000000	0.00000000000000	0.00000000000000	0.00000000000000	0.00000000000000	0.00000000000000	18.60562800000000	0.00000000000000	0.00000000000000	0.00000000000000	0.00000000000000	
18.46325900000000	-14.57741400000000	732.04334400000005	47.31676900000000	0.15307800000000	0.00000000000000	0.11433700000000	0.00000000000000	0.00000000000000	0.00000000000000	0.00000000000000	0.00000000000000	0.00000000000000	0.00000000000000	18.71276800000000	0.00000000000000	0.00000000000000	0.00000000000000	0.00000000000000	
18.46492400000000	-15.14553900000000	733.86379299999999	47.41162700000000	0.15212300000000	0.00000000000000	0.11427300000000	0.00000000000000	0.00000000000000	0.00000000000000	0.00000000000000	0.00000000000000	0.00000000000000	0.00000000000000	18.82057000000000	0.00000000000000	0.00000000000000	0.00000000000000	0.00000000000000	
18.46659100000000	-15.71511200000000	735.68935099999999	47.50779600000000	0.15117800000000	0.00000000000000	0.11420900000000	0.00000000000000	0.00000000000000	0.00000000000000	0.00000000000000	0.00000000000000	0.00000000000000	0.00000000000000	18.92892500000000	0.00000000000000	0.00000000000000	0.00000000000000	0.00000000000000	
18.46826500000000	-16.28580600000000	737.51870299999996	47.60521200000000	0.15024600000000	0.00000000000000	0.11414600000000	0.00000000000000	0.00000000000000	0.00000000000000	0.00000000000000	0.00000000000000	0.00000000000000	0.00000000000000	19.03772000000000	0.00000000000000	0.00000000000000	0.00000000000000	0.00000000000000	
18.46994100000000	-16.85728700000000	739.35053500000004	47.70382600000000	0.14932700000000	0.00000000000000	0.11408200000000	0.00000000000000	0.00000000000000	0.00000000000000	0.00000000000000	0.00000000000000	0.00000000000000	0.00000000000000	19.14684300000000	0.00000000000000	0.00000000000000	0.00000000000000	0.00000000000000	
18.47159300000000	-17.42921700000000	741.18354199999999	47.80359900000000	0.14842100000000	0.00000000000000	0.11401900000000	0.00000000000000	0.00000000000000	0.00000000000000	0.00000000000000	0.00000000000000	0.00000000000000	0.00000000000000	19.25618100000000	0.00000000000000	0.00000000000000	0.00000000000000	0.00000000000000	
18.47326100000000	-18.00125500000000	743.01641700000005	47.90450700000000	0.14752800000000	0.00000000000000	0.11395600000000	0.00000000000000	0.00000000000000	0.00000000000000	0.00000000000000	0.00000000000000	0.00000000000000	0.00000000000000	19.36562100000000	0.00000000000000	0.00000000000000	0.00000000000000	0.00000000000000	
18.47492400000000	-18.57305800000000	744.84785299999999	48.00653600000000	0.14664800000000	0.00000000000000	0.11389300000000	0.00000000000000	0.00000000000000	0.00000000000000	0.00000000000000	0.00000000000000	0.00000000000000	0.00000000000000	19.47504900000000	0.00000000000000	0.00000000000000	0.00000000000000	0.00000000000000	
18.47659900000000	-19.14428100000000	746.67653800000005	48.10968200000000	0.14578200000000	0.00000000000000	0.11383000000000	0.00000000000000	0.00000000000000	0.00000000000000	0.00000000000000	0.00000000000000	0.00000000000000	0.00000000000000	19.58434900000000	0.00000000000000	0.00000000000000	0.00000000000000	0.00000000000000	
18.47826000000000	-19.71457600000000	748.50115500000004	48.21395400000000	0.14492900000000	0.00000000000000	0.11376700000000	0.00000000000000	0.00000000000000	0.00000000000000	0.00000000000000	0.00000000000000	0.00000000000000	0.00000000000000	19.69340600000000	0.00000000000000	0.00000000000000	0.00000000000000	0.00000000000000	
18.47993100000000	-20.28359600000000	750.32038100000000	48.31936800000000	0.14409000000000	0.00000000000000	0.11370500000000	0.00000000000000	0.00000000000000	0.00000000000000	0.00000000000000	0.00000000000000	0.00000000000000	0.00000000000000	19.80210400000000	0.00000000000000	0.00000000000000	0.00000000000000	0.00000000000000	
18.48159100000000	-20.85099300000000	752.13288000000000	48.42595100000000	0.14326400000000	0.00000000000000	0.11364300000000	0.00000000000000	0.00000000000000	0.00000000000000	0.00000000000000	0.00000000000000	0.00000000000000	0.00000000000000	19.91032700000000	0.00000000000000	0.00000000000000	0.00000000000000	0.00000000000000	
